<svg width="32" height="32" viewBox="0 0 32 32" fill="none" xmlns="http://www.w3.org/2000/svg">
<path d="M4.98863 12.584C5.34811 12.4639 5.7324 12.3994 6.13258 12.3994C7.87746 12.3994 9.33429 13.6388 9.66798 15.2861L12.1414 14.7816C11.5738 11.9819 9.0997 9.875 6.13258 9.875C5.45267 9.875 4.79952 9.98581 4.18848 10.19L4.98863 12.584Z" fill="#FFCC00"/>
<path d="M2.06946 20.6003L3.74214 18.7092C2.99547 18.0477 2.52438 17.0824 2.52438 16.0068C2.52438 14.932 2.99483 13.9671 3.74101 13.3064L2.06818 11.415C0.800147 12.5385 0 14.1795 0 16.0068C0 17.8353 0.800466 19.4767 2.06946 20.6003Z" fill="#00A0DE"/>
<path d="M9.66761 16.7307C9.33246 18.3773 7.87725 19.6143 6.13285 19.6143C5.73255 19.6143 5.34712 19.5497 4.98781 19.429L4.18652 21.824C4.79772 22.028 5.45217 22.1385 6.13285 22.1385C9.0971 22.1385 11.5709 20.035 12.1407 17.238L9.66761 16.7307Z" fill="#EC3413"/>
<path d="M14.3048 18.7888C14.2238 18.6575 14.1136 18.4476 14.0473 18.293C13.6557 17.3837 13.6369 16.4426 13.9678 15.5392C14.3314 14.5485 15.0262 13.79 15.9238 13.4038C17.0524 12.9181 18.3006 13.0138 19.3822 13.6556C20.0693 14.0498 20.5564 14.6585 20.9263 15.519L20.9607 15.6026L21.0247 15.7689C21.035 15.7957 21.0451 15.8218 21.0552 15.8468L14.3048 18.7888ZM16.5589 14.8636C15.7575 15.2081 15.3444 15.9598 15.4292 16.8413L18.8242 15.3802C18.2404 14.6941 17.4806 14.4667 16.5589 14.8636ZM20.5598 18.9201L19.2476 18.0427L19.2457 18.0447L19.1754 17.9973C18.9728 18.326 18.6567 18.5923 18.2578 18.7652C17.499 19.0953 16.7957 19.0104 16.2907 18.5675L16.2443 18.6381C16.2438 18.6373 16.2436 18.6367 16.2428 18.6367L15.3815 19.9252C15.5953 20.0738 15.8249 20.1996 16.066 20.3002C17.0175 20.6954 17.9909 20.6771 18.9499 20.26C19.6436 19.9594 20.1878 19.501 20.5598 18.9201ZM23.4147 11.5061V18.6698L24.5284 19.1212L23.8955 20.5979L22.6661 20.0859C22.3902 19.9665 22.2024 19.7836 22.0602 19.5772C21.9242 19.3668 21.8225 19.0781 21.8225 18.6893V11.5061H23.4147ZM26.3 16.8449C26.3006 16.2348 26.57 15.6878 26.9962 15.316L25.8536 14.0418C25.0785 14.7269 24.5905 15.7278 24.5895 16.8431C24.5882 17.9587 25.0757 18.9607 25.8499 19.6475L26.9912 18.3721C26.5671 17.9989 26.2995 17.4535 26.3 16.8449ZM28.3302 18.8781C28.1052 18.8775 27.8886 18.8403 27.6865 18.7731L27.1408 20.3956C27.5137 20.5208 27.9132 20.5891 28.3284 20.5897C30.1377 20.5915 31.6485 19.3077 31.9985 17.6011L30.3212 17.2586C30.1305 18.1837 29.3114 18.8788 28.3302 18.8781ZM28.3352 13.1038C27.9204 13.1034 27.5211 13.1708 27.1487 13.2949L27.6896 14.9189C27.8923 14.8519 28.1089 14.8149 28.3336 14.8149C29.3171 14.8159 30.1368 15.5152 30.323 16.4428L32.0005 16.1025C31.6552 14.3935 30.1459 13.1049 28.3352 13.1038Z" fill="black"/>
</svg>
