<svg width="32" height="32" viewBox="0 0 32 32" fill="none" xmlns="http://www.w3.org/2000/svg">
<path d="M20.8458 16.9967C20.743 17.8347 21.7481 17.7351 22.1062 17.3846C22.3708 17.1256 22.4447 16.6633 22.5046 16.2884C22.5065 16.2766 22.5083 16.265 22.5102 16.2534C21.6889 16.1529 20.9312 16.3008 20.8458 16.9967Z" fill="#B82126"/>
<path d="M26.2592 16.8998C26.2699 17.3798 26.5025 17.6693 26.9702 17.6593C27.8192 17.6411 27.9587 16.7219 28.088 15.8697C28.1254 15.6233 28.1619 15.3825 28.2145 15.1707C27.9591 15.0835 27.7067 15.0025 27.3581 15.0414C26.6093 15.1252 26.2406 16.0591 26.2592 16.8998Z" fill="#B82126"/>
<path d="M9.37255 17.126C9.44421 17.7885 10.3582 17.7945 10.7299 17.4008C11.0378 17.0747 11.2933 16.2687 11.1986 15.6232C11.0894 14.8797 10.0134 14.9336 9.64719 15.3807C9.61629 15.5352 9.59027 15.698 9.56331 15.8667C9.54401 15.9875 9.52422 16.1113 9.50181 16.2373C9.48679 16.3216 9.46744 16.4063 9.4481 16.4909C9.39906 16.7053 9.35014 16.9193 9.37255 17.126Z" fill="#B82126"/>
<path d="M9.64719 14.9768C9.65252 14.9723 9.65823 14.9679 9.66375 14.9634C9.66482 14.9745 9.65635 14.976 9.64719 14.9768Z" fill="#B82126"/>
<path d="M12.9438 15.8333H14.5759C14.7238 15.2091 14.3654 15.0062 13.8648 15.0253C13.333 15.0456 12.9955 15.458 12.9438 15.8333Z" fill="#B82126"/>
<path fill-rule="evenodd" clip-rule="evenodd" d="M5.46813 9.0625H32C31.4596 11.7263 30.9293 14.3309 30.4011 16.9252C30.2869 17.4863 30.1728 18.0469 30.0587 18.6075C30.0334 18.7314 30.0082 18.8559 29.9829 18.9806C29.8433 19.6693 29.7028 20.3625 29.5571 20.9857C29.1867 22.5699 27.8162 22.9917 25.82 22.9917H0C0.308919 21.5146 0.607678 20.0053 0.908279 18.4867C1.27498 16.6341 1.64443 14.7677 2.0384 12.9291C2.08721 12.7013 2.13102 12.4689 2.17491 12.236C2.25784 11.7959 2.34109 11.3542 2.45902 10.9391C2.80489 9.72201 4.00274 9.13179 5.46813 9.0625ZM20.8933 15.0275C20.9231 14.9108 20.9529 14.7941 20.9751 14.6698C21.1227 14.6655 21.2913 14.6519 21.4687 14.6376C22.2794 14.572 23.276 14.4915 23.3182 15.2192C23.3338 15.4886 23.2702 15.7809 23.2047 16.0816C23.1761 16.213 23.1471 16.3461 23.1243 16.4796C23.1207 16.5008 23.117 16.5218 23.1134 16.5428C23.0295 17.0331 22.9526 17.4819 22.9465 18.031H22.3486C22.3392 17.8329 22.3674 17.6726 22.3971 17.5139C22.1107 17.9724 21.2835 18.3062 20.6034 18.0148C20.2503 17.8635 20.0659 17.3214 20.2317 16.7705C20.4792 15.948 21.4202 15.7562 22.5749 15.8656L22.5761 15.8622C22.6272 15.7204 22.6962 15.5288 22.6557 15.3484C22.5326 14.8012 21.2558 15.1164 20.8458 15.2192C20.8608 15.1545 20.877 15.091 20.8933 15.0275ZM28.2792 14.7182C28.3824 14.2397 28.462 13.7376 28.5215 13.2154H29.2164C29.1395 13.653 29.0552 14.0832 28.9709 14.5134C28.7498 15.6416 28.5287 16.7697 28.4408 18.031H27.8106C27.8131 17.8956 27.8334 17.778 27.8537 17.6603C27.8611 17.6171 27.8686 17.574 27.8751 17.53C27.8666 17.5018 27.8323 17.5573 27.797 17.6144C27.7792 17.6433 27.7611 17.6726 27.7459 17.6916C27.6861 17.7666 27.5939 17.8747 27.5035 17.934C27.0371 18.2407 26.1133 18.1535 25.7906 17.7885C25.6034 17.5768 25.5519 17.2799 25.5482 16.9806C25.5294 15.4328 26.5747 14.1787 28.2792 14.7182ZM9.66375 14.9634C9.97446 14.7126 10.6913 14.4489 11.2794 14.6698C12.4895 15.1244 11.7937 17.4462 10.8915 17.934C10.4543 18.1704 9.4181 18.2873 9.25942 17.6755C9.16374 18.0729 9.10242 18.5047 9.04109 18.9365C9.01265 19.1367 8.98421 19.337 8.95235 19.5338H8.25751C8.56935 17.9387 8.86482 16.3274 9.11398 14.6698H9.71188C9.70924 14.7237 9.69844 14.7694 9.68763 14.8152C9.67682 14.8609 9.66601 14.9067 9.66337 14.9607C9.66363 14.9617 9.66369 14.9625 9.66375 14.9634ZM12.6852 15.106C12.9869 14.7883 13.4113 14.6438 13.9134 14.6052C14.4861 14.561 15.0488 14.6798 15.2061 15.1384C15.2956 15.3993 15.2411 15.6805 15.1882 15.9533C15.1707 16.0438 15.1533 16.1334 15.1415 16.2211C14.3911 16.2018 13.6123 16.1972 12.863 16.2211C12.7467 16.7173 12.7487 17.2884 13.1054 17.5139C13.5777 17.8125 14.3752 17.5726 14.8344 17.4008C14.8231 17.47 14.8093 17.5369 14.7955 17.6037C14.7724 17.7155 14.7494 17.8272 14.7375 17.9502C13.6226 18.2215 12.2287 18.2617 12.1035 17.1422C12.0157 16.3575 12.3153 15.4958 12.6852 15.106ZM7.78886 14.7182C7.78748 14.6953 7.78623 14.6725 7.80505 14.6698H8.49989C8.26021 15.7498 8.06896 16.8782 7.90199 18.031H7.20715C7.42858 16.9543 7.63577 15.8633 7.78886 14.7182ZM24.611 15.203C24.8107 14.8941 25.3219 14.3789 25.9361 14.6859C25.9088 14.7739 25.8925 14.8728 25.8761 14.9716C25.8649 15.0392 25.8538 15.1067 25.8391 15.1707C24.7514 14.8631 24.5333 15.8862 24.3847 16.819C24.3663 16.9346 24.3466 17.0427 24.3276 17.1473C24.2746 17.4384 24.2264 17.7033 24.2231 18.031H23.5121C23.7448 16.944 23.9445 15.8239 24.11 14.6698H24.7241C24.6986 14.748 24.6846 14.8376 24.6707 14.9273C24.6556 15.024 24.6405 15.1207 24.611 15.203ZM18.0663 16.5927C18.0503 16.8004 18.067 17.0737 18.131 17.2391C18.3514 17.8085 19.2995 17.6746 19.7955 17.4169C19.7801 17.4899 19.7674 17.5655 19.7547 17.6411C19.738 17.7408 19.7213 17.8405 19.6985 17.934C18.7908 18.2475 17.67 18.203 17.4199 17.3846C17.2063 16.6852 17.5085 15.5736 17.9694 15.0899C18.4402 14.5959 19.3283 14.5008 20.264 14.6537C20.2542 14.7285 20.242 14.8011 20.2298 14.8736C20.2118 14.981 20.1938 15.0883 20.1832 15.203C19.6127 15.0036 18.8973 14.9448 18.535 15.3C18.2724 15.5573 18.1023 16.1258 18.0663 16.5927ZM16.4181 15.2354C16.6427 14.8414 17.127 14.4209 17.7432 14.6698C17.735 14.7465 17.7202 14.8167 17.7054 14.887C17.6865 14.9769 17.6675 15.0669 17.6624 15.1707C17.0103 14.938 16.5584 15.3647 16.3858 15.8656C16.2314 16.3134 16.1659 16.8921 16.1055 17.4251C16.0814 17.6381 16.0581 17.8438 16.0303 18.031H15.3354C15.3635 17.8836 15.3917 17.7365 15.42 17.5893C15.6035 16.634 15.7871 15.6786 15.9171 14.6698H16.5312C16.5146 14.7443 16.5013 14.8221 16.488 14.8999C16.4683 15.0153 16.4485 15.1307 16.4181 15.2354ZM6.22143 15.2192C6.33355 14.588 6.44537 13.9564 6.54463 13.3124H7.3526C7.03479 14.8475 6.76668 16.4324 6.51232 18.031H5.72047C5.79155 17.5802 5.8746 17.1415 5.95766 16.7028C6.02036 16.3716 6.08307 16.0404 6.14061 15.704C5.55224 15.648 4.83196 15.6666 4.19937 15.6829C4.13442 15.6846 4.07039 15.6863 4.00753 15.6878C3.86777 16.3304 3.76264 17.0076 3.65751 17.6849C3.63959 17.8003 3.62167 17.9157 3.60358 18.031H2.8118C3.02747 16.9576 3.21533 15.8564 3.4032 14.7552C3.48538 14.2735 3.56757 13.7918 3.65208 13.3124H4.42767C4.36334 13.6178 4.30784 13.9321 4.25234 14.2464C4.19546 14.5684 4.13859 14.8905 4.07222 15.203C4.6256 15.2442 5.2048 15.2348 5.78158 15.2255C5.92851 15.2231 6.07528 15.2207 6.22143 15.2192ZM8.62921 13.3124C8.83301 13.4933 8.65462 13.928 8.51608 14.0234C8.42792 14.0841 8.13133 14.1538 7.99894 14.0234C7.86303 13.8894 7.94347 13.5289 8.03131 13.4093C8.0859 13.3349 8.16628 13.2875 8.30601 13.2639C8.4566 13.2384 8.56464 13.2551 8.62921 13.3124Z" fill="#B82126"/>
</svg>
