<svg width="32" height="32" viewBox="0 0 32 32" fill="none" xmlns="http://www.w3.org/2000/svg">
<path d="M5.82104 28.3127V26.6647C5.83071 26.5261 5.81071 26.3871 5.76239 26.2568C5.71406 26.1265 5.63852 26.0081 5.54079 25.9093C5.44306 25.8105 5.3254 25.7337 5.19565 25.684C5.0659 25.6343 4.92705 25.6129 4.78835 25.6211C4.60683 25.6092 4.42545 25.6463 4.26314 25.7284C4.10082 25.8106 3.96351 25.9347 3.86551 26.088C3.77619 25.9393 3.64843 25.8175 3.49569 25.7353C3.34294 25.6531 3.17087 25.6137 2.99758 25.6211C2.84653 25.6135 2.69612 25.6455 2.56123 25.7139C2.42634 25.7823 2.31166 25.8847 2.22854 26.0111V25.687H1.65723V28.3127H2.23401V26.857C2.22153 26.7672 2.22911 26.6757 2.2562 26.5892C2.28328 26.5026 2.32919 26.4231 2.39063 26.3564C2.45208 26.2897 2.52753 26.2375 2.61158 26.2034C2.69562 26.1693 2.78617 26.1543 2.87672 26.1594C3.25574 26.1594 3.44803 26.4066 3.44803 26.8515V28.3127H4.02481V26.857C4.01328 26.7673 4.02151 26.6762 4.04894 26.5901C4.07636 26.504 4.12232 26.4249 4.18357 26.3584C4.24482 26.2919 4.31988 26.2397 4.40349 26.2053C4.48709 26.1709 4.57721 26.1552 4.66751 26.1594C5.0575 26.1594 5.24427 26.4066 5.24427 26.8515V28.3127H5.82104ZM14.3574 25.687H13.4236V24.8905H12.8468V25.687H12.314V26.2088H12.8468V27.4063C12.8468 28.0161 13.083 28.3786 13.7587 28.3786C14.0111 28.3794 14.2586 28.309 14.4728 28.1754L14.308 27.6865C14.1548 27.7779 13.9809 27.8289 13.8026 27.8348C13.517 27.8348 13.4236 27.659 13.4236 27.3954V26.2088H14.3574V25.687ZM19.2299 25.6211C19.0906 25.617 18.9528 25.6505 18.831 25.7182C18.7091 25.7859 18.6078 25.8851 18.5378 26.0056V25.687H17.9719V28.3127H18.5432V26.8405C18.5432 26.4066 18.73 26.1649 19.1036 26.1649C19.2257 26.1632 19.3471 26.1856 19.4606 26.2308L19.6364 25.6925C19.5059 25.6458 19.3684 25.6216 19.2299 25.6211ZM11.8636 25.8957C11.5402 25.7034 11.1684 25.6081 10.7924 25.6211C10.1277 25.6211 9.69925 25.9397 9.69925 26.4615C9.69925 26.89 10.0178 27.1537 10.6056 27.2361L10.8748 27.2745C11.1879 27.3184 11.3362 27.4008 11.3362 27.5491C11.3362 27.7524 11.1274 27.8678 10.7374 27.8678C10.4237 27.8768 10.1161 27.78 9.86401 27.5931L9.59487 28.038C9.92762 28.2704 10.3262 28.3898 10.7319 28.3786C11.49 28.3786 11.9294 28.0215 11.9294 27.5217C11.9294 27.0603 11.5834 26.8185 11.0121 26.7361L10.743 26.6977C10.4957 26.6647 10.298 26.6154 10.298 26.4396C10.298 26.2473 10.4847 26.1319 10.7979 26.1319C11.0854 26.1363 11.3671 26.2138 11.6164 26.3571L11.8636 25.8957ZM27.1675 25.6211C27.0282 25.617 26.8904 25.6505 26.7686 25.7182C26.6467 25.7859 26.5455 25.8851 26.4754 26.0056V25.687H25.9096V28.3127H26.4808V26.8405C26.4808 26.4066 26.6676 26.1649 27.0411 26.1649C27.1633 26.1632 27.2847 26.1856 27.3982 26.2308L27.574 25.6925C27.4435 25.6458 27.3061 25.6216 27.1675 25.6211ZM19.8066 26.9998C19.799 27.1848 19.8303 27.3693 19.8983 27.5415C19.9663 27.7137 20.0696 27.8697 20.2015 27.9996C20.3334 28.1295 20.4911 28.2303 20.6644 28.2956C20.8376 28.3609 21.0226 28.3892 21.2074 28.3786C21.5504 28.3959 21.8874 28.2842 22.1522 28.0655L21.8776 27.6041C21.6801 27.7546 21.4393 27.8375 21.1909 27.8403C20.9768 27.8273 20.7758 27.7331 20.6288 27.5769C20.4818 27.4207 20.3999 27.2143 20.3999 26.9998C20.3999 26.7854 20.4818 26.579 20.6288 26.4228C20.7758 26.2666 20.9768 26.1724 21.1909 26.1594C21.4393 26.1622 21.6801 26.245 21.8776 26.3956L22.1522 25.9342C21.8874 25.7155 21.5504 25.6038 21.2074 25.6211C21.0226 25.6105 20.8376 25.6388 20.6644 25.7041C20.4911 25.7694 20.3335 25.8702 20.2015 26.0001C20.0696 26.1299 19.9663 26.2859 19.8983 26.4581C19.8303 26.6303 19.799 26.8148 19.8066 26.9998ZM25.157 26.9998V25.687H24.5857V26.0056C24.4882 25.8799 24.362 25.7794 24.2177 25.7125C24.0734 25.6456 23.9151 25.6143 23.7562 25.6211C23.4022 25.6384 23.0685 25.7913 22.8241 26.0479C22.5797 26.3046 22.4434 26.6454 22.4434 26.9999C22.4434 27.3543 22.5797 27.6951 22.8241 27.9518C23.0685 28.2085 23.4022 28.3613 23.7562 28.3786C23.9151 28.3854 24.0734 28.3541 24.2177 28.2871C24.362 28.2202 24.4882 28.1197 24.5857 27.9941V28.3127H25.157V26.9998ZM23.0311 26.9998C23.04 26.8448 23.094 26.6959 23.1865 26.5713C23.279 26.4467 23.406 26.3519 23.5517 26.2985C23.6975 26.2452 23.8556 26.2357 24.0067 26.2712C24.1578 26.3067 24.2952 26.3856 24.402 26.4983C24.5087 26.6109 24.5802 26.7524 24.6075 26.9051C24.6349 27.0579 24.6169 27.2153 24.5558 27.358C24.4948 27.5007 24.3933 27.6224 24.2639 27.7081C24.1345 27.7938 23.9829 27.8397 23.8277 27.8403C23.7189 27.8417 23.611 27.8207 23.5107 27.7784C23.4105 27.7361 23.3201 27.6735 23.2453 27.5945C23.1705 27.5155 23.1128 27.4219 23.0759 27.3196C23.0391 27.2172 23.0238 27.1083 23.0311 26.9998ZM16.1372 25.6211C15.781 25.6398 15.4458 25.7958 15.2021 26.0563C14.9584 26.3169 14.825 26.6616 14.83 27.0184C14.8349 27.3751 14.9779 27.716 15.2288 27.9696C15.4797 28.2233 15.819 28.3698 16.1757 28.3786C16.5676 28.3924 16.9509 28.2614 17.2523 28.0106L16.9722 27.5876C16.7552 27.7615 16.4866 27.8581 16.2086 27.8623C16.0199 27.8781 15.8323 27.8199 15.6857 27.7C15.5391 27.58 15.4449 27.4077 15.4231 27.2195H17.3732C17.3787 27.1482 17.3842 27.0767 17.3842 26.9998C17.3787 26.1814 16.8733 25.6211 16.1372 25.6211ZM16.1262 26.1319C16.2988 26.1286 16.4656 26.1937 16.5902 26.3132C16.7148 26.4326 16.787 26.5966 16.7909 26.7691H15.4286C15.4386 26.5928 15.5172 26.4275 15.6476 26.3084C15.778 26.1893 15.9498 26.126 16.1262 26.1319ZM30.4579 26.9998V24.6323H29.8866V26.0056C29.7891 25.8799 29.6629 25.7794 29.5186 25.7125C29.3743 25.6456 29.2161 25.6143 29.0571 25.6211C28.7031 25.6384 28.3694 25.7912 28.125 26.0479C27.8806 26.3046 27.7442 26.6454 27.7442 26.9999C27.7442 27.3543 27.8806 27.6951 28.125 27.9518C28.3694 28.2085 28.7031 28.3613 29.0571 28.3786C29.2161 28.3854 29.3743 28.3541 29.5186 28.2871C29.6629 28.2202 29.7891 28.1197 29.8866 27.9941V28.3127H30.4579V26.9998ZM31.4102 27.9322C31.4457 27.9319 31.4808 27.9389 31.5135 27.9527C31.545 27.9658 31.5737 27.9848 31.598 28.0086C31.6221 28.0324 31.6415 28.0607 31.6549 28.0918C31.6686 28.1238 31.6757 28.1582 31.6757 28.193C31.6757 28.2278 31.6686 28.2623 31.6549 28.2943C31.6414 28.3252 31.6221 28.3534 31.598 28.3771C31.5736 28.4009 31.545 28.42 31.5135 28.4333C31.4809 28.4473 31.4457 28.4544 31.4102 28.4542C31.3579 28.4547 31.3067 28.4398 31.2628 28.4114C31.219 28.3829 31.1845 28.3422 31.1636 28.2943C31.1499 28.2623 31.1429 28.2278 31.1429 28.193C31.1429 28.1582 31.1499 28.1238 31.1636 28.0918C31.177 28.0607 31.1963 28.0325 31.2203 28.0086C31.2446 27.9846 31.2734 27.9656 31.305 27.9527C31.3384 27.9389 31.3741 27.9319 31.4102 27.9322ZM31.4102 28.3966C31.4373 28.3968 31.4641 28.3914 31.4889 28.3806C31.5128 28.3702 31.5345 28.3555 31.5529 28.3371C31.5908 28.2988 31.6121 28.2471 31.6121 28.1931C31.6121 28.1392 31.5908 28.0875 31.5529 28.0492C31.5345 28.0309 31.5128 28.0162 31.4889 28.0061C31.4641 27.9955 31.4372 27.9902 31.4102 27.9904C31.3827 27.9902 31.3554 27.9955 31.3299 28.0061C31.3057 28.0161 31.2836 28.0307 31.265 28.0492C31.2271 28.0875 31.2058 28.1392 31.2058 28.1931C31.2058 28.2471 31.2271 28.2988 31.265 28.3371C31.2837 28.3556 31.3057 28.3704 31.3299 28.3806C31.3553 28.3913 31.3826 28.3968 31.4102 28.3966ZM31.4256 28.071C31.4513 28.0693 31.4767 28.0767 31.4976 28.0918C31.5059 28.0986 31.5125 28.1073 31.5168 28.1171C31.5212 28.1269 31.5233 28.1377 31.5228 28.1484C31.5231 28.1576 31.5215 28.1668 31.518 28.1753C31.5145 28.1838 31.5093 28.1915 31.5027 28.1979C31.4868 28.2121 31.4666 28.2205 31.4454 28.2219L31.5247 28.3134H31.4627L31.3891 28.2226H31.3655V28.3134H31.3137V28.071H31.4256ZM31.3655 28.1164V28.181H31.425C31.4364 28.1816 31.4477 28.1788 31.4576 28.173C31.4616 28.1703 31.4648 28.1666 31.4669 28.1623C31.4691 28.158 31.47 28.1532 31.4697 28.1484C31.47 28.1437 31.469 28.139 31.4669 28.1348C31.4647 28.1305 31.4615 28.127 31.4576 28.1244C31.4477 28.1186 31.4364 28.1159 31.425 28.1164H31.3655ZM28.3321 26.9998C28.3409 26.8449 28.3949 26.6959 28.4875 26.5713C28.58 26.4467 28.7069 26.3519 28.8527 26.2986C28.9984 26.2453 29.1566 26.2358 29.3077 26.2713C29.4587 26.3068 29.5961 26.3857 29.7029 26.4984C29.8096 26.611 29.8811 26.7524 29.9084 26.9052C29.9357 27.058 29.9177 27.2154 29.8567 27.3581C29.7956 27.5007 29.6941 27.6224 29.5648 27.7081C29.4354 27.7938 29.2837 27.8397 29.1285 27.8403C29.0198 27.8417 28.9119 27.8207 28.8116 27.7784C28.7114 27.7361 28.621 27.6734 28.5462 27.5945C28.4714 27.5155 28.4137 27.4219 28.3769 27.3196C28.34 27.2172 28.3247 27.1083 28.3321 26.9998ZM9.04006 26.9998V25.687H8.46875V26.0056C8.37123 25.8799 8.24505 25.7794 8.10074 25.7125C7.95643 25.6456 7.79819 25.6143 7.63928 25.6211C7.28529 25.6384 6.95154 25.7913 6.70714 26.0479C6.46275 26.3046 6.32643 26.6454 6.32643 26.9999C6.32643 27.3543 6.46275 27.6951 6.70714 27.9518C6.95154 28.2085 7.28529 28.3613 7.63928 28.3786C7.7982 28.3854 7.95643 28.3541 8.10074 28.2871C8.24505 28.2202 8.37124 28.1197 8.46875 27.9941V28.3127H9.04006V26.9998ZM6.91422 26.9998C6.92309 26.8449 6.97712 26.6959 7.06963 26.5713C7.16215 26.4467 7.2891 26.3519 7.43485 26.2986C7.58059 26.2453 7.73876 26.2358 7.88983 26.2713C8.0409 26.3068 8.17828 26.3857 8.28503 26.4984C8.39178 26.611 8.46322 26.7525 8.49056 26.9052C8.51789 27.058 8.49992 27.2154 8.43885 27.3581C8.37779 27.5007 8.2763 27.6224 8.14691 27.7081C8.01752 27.7938 7.86589 27.8397 7.7107 27.8403C7.60192 27.8417 7.49402 27.8207 7.3938 27.7784C7.29357 27.7361 7.2032 27.6734 7.12837 27.5945C7.05354 27.5155 6.99588 27.4219 6.95903 27.3196C6.92217 27.2172 6.90691 27.1083 6.91422 26.9998Z" fill="#231F20"/>
<path d="M20.3267 5.67627H11.6738V21.2258H20.3267V5.67627Z" fill="#FF5F00"/>
<path d="M12.2232 13.4515C12.2218 11.954 12.5611 10.4758 13.2155 9.12881C13.8699 7.78182 14.8222 6.60135 16.0002 5.67678C14.5414 4.5301 12.7893 3.817 10.9444 3.61898C9.09943 3.42096 7.23598 3.74601 5.56703 4.55698C3.89808 5.36795 2.49096 6.63212 1.50651 8.205C0.522061 9.77788 0 11.596 0 13.4515C0 15.3071 0.522061 17.1252 1.50651 18.6981C2.49096 20.271 3.89808 21.5351 5.56703 22.3461C7.23598 23.1571 9.09943 23.4821 10.9444 23.2841C12.7893 23.0861 14.5414 22.373 16.0002 21.2263C14.8222 20.3017 13.8699 19.1213 13.2155 17.7743C12.5612 16.4273 12.2218 14.9491 12.2232 13.4515Z" fill="#EB001B"/>
<path d="M31.9997 13.4515C31.9998 15.3071 31.4778 17.1252 30.4934 18.6981C29.509 20.2709 28.1019 21.5351 26.433 22.3461C24.7641 23.1571 22.9007 23.4821 21.0557 23.2841C19.2108 23.0861 17.4588 22.373 16 21.2263C17.177 20.3008 18.1285 19.1202 18.7828 17.7734C19.4371 16.4266 19.777 14.9488 19.777 13.4515C19.777 11.9542 19.4371 10.4765 18.7828 9.12972C18.1285 7.78294 17.177 6.60228 16 5.67678C17.4588 4.5301 19.2108 3.81699 21.0557 3.61898C22.9007 3.42096 24.7641 3.74602 26.433 4.557C28.1019 5.36798 29.509 6.63215 30.4934 8.20503C31.4778 9.77791 31.9998 11.596 31.9997 13.4515Z" fill="#F79E1B"/>
<path d="M31.0569 19.5791V19.2608H31.1853V19.1959H30.8584V19.2608H30.9868V19.5791H31.0569ZM31.6916 19.5791V19.1953H31.5914L31.4762 19.4593L31.3609 19.1953H31.2606V19.5791H31.3314V19.2896L31.4395 19.5392H31.5128L31.6209 19.289V19.5791H31.6916Z" fill="#F79E1B"/>
</svg>
